<?xml version="1.0" standalone="no"?>
<!DOCTYPE svg PUBLIC "-//W3C//DTD SVG 20010904//EN"
 "http://www.w3.org/TR/2001/REC-SVG-20010904/DTD/svg10.dtd">
<svg version="1.0" xmlns="http://www.w3.org/2000/svg"
 width="512.000000pt" height="512.000000pt" viewBox="0 0 512.000000 512.000000"
 preserveAspectRatio="xMidYMid meet">
<metadata>
Created by potrace 1.16, written by Peter Selinger 2001-2019
</metadata>
<g transform="translate(0.000000,512.000000) scale(0.100000,-0.100000)"
fill="#000000" stroke="none">
<path d="M735 4928 c-46 -26 -44 -5 -45 -783 l0 -740 -312 -205 c-172 -113
-327 -218 -345 -234 l-33 -28 0 -1348 c0 -742 3 -1356 6 -1365 19 -47 -109
-45 2554 -45 2663 0 2535 -2 2554 45 3 9 6 623 6 1365 l0 1348 -33 28 c-18 16
-173 121 -345 234 l-312 205 0 740 c-1 782 1 758 -47 783 -31 17 -3619 17
-3648 0z m3515 -1257 l0 -1088 -700 -372 c-385 -204 -705 -371 -710 -371 -5 0
-64 36 -131 80 -79 53 -130 80 -149 80 -19 0 -70 -27 -149 -80 -67 -44 -126
-80 -131 -80 -5 0 -325 167 -710 371 l-700 372 0 1088 0 1089 1690 0 1690 0 0
-1089z m-3563 -678 c-2 -2 -69 -2 -147 -1 l-143 3 144 96 144 96 3 -95 c1 -52
1 -96 -1 -99z m4028 6 c5 -5 -54 -9 -138 -9 l-147 0 0 100 0 100 138 -91 c75
-50 141 -95 147 -100z m-4025 -255 l0 -66 -117 63 c-65 34 -120 63 -122 65 -2
2 50 4 117 4 l122 0 0 -66z m3979 62 c-2 -2 -57 -31 -121 -65 l-118 -63 0 66
0 66 122 0 c67 0 119 -2 117 -4z m-3436 -621 c477 -253 867 -462 867 -465 0
-4 -1873 -1249 -1916 -1273 -12 -7 -14 156 -14 1147 l0 1154 98 -51 c54 -29
488 -259 965 -512z m3715 -1171 l-3 -574 -962 637 c-530 351 -963 640 -963
643 0 3 433 235 963 515 l962 511 3 -579 c1 -318 1 -837 0 -1153z m-1298 66
l1078 -715 -1084 -3 c-596 -1 -1572 -1 -2168 0 l-1084 3 1082 717 c594 395
1085 716 1089 715 5 -1 494 -324 1087 -717z"/>
<path d="M2370 4229 c-314 -82 -536 -340 -569 -661 -17 -173 19 -354 96 -488
58 -100 200 -237 298 -287 170 -87 165 -87 643 -91 366 -3 427 -1 447 12 51
34 49 123 -5 151 -24 13 -89 15 -408 15 -345 0 -386 2 -456 20 -129 33 -238
106 -318 211 -88 117 -121 219 -121 374 0 85 5 114 30 186 66 192 205 324 402
383 34 10 91 16 151 16 257 0 468 -151 552 -397 37 -106 44 -261 15 -305 -40
-59 -108 -76 -165 -43 -48 29 -56 51 -63 186 -5 112 -10 134 -36 190 -110 235
-420 287 -601 101 -63 -65 -95 -138 -100 -232 -13 -218 147 -391 361 -391 82
0 152 19 207 55 l37 25 39 -40 c131 -134 359 -118 462 34 54 78 67 157 52 304
-6 56 -20 130 -31 165 -83 255 -283 441 -543 508 -106 27 -271 27 -376 -1z
m252 -520 c91 -47 123 -178 65 -265 -36 -53 -95 -86 -156 -86 -50 0 -113 26
-143 59 -26 29 -48 88 -48 130 1 77 64 165 128 179 15 3 32 7 37 9 18 7 79 -6
117 -26z"/>
</g>
</svg>
