<?xml version="1.0" standalone="no"?>
<!DOCTYPE svg PUBLIC "-//W3C//DTD SVG 20010904//EN"
 "http://www.w3.org/TR/2001/REC-SVG-20010904/DTD/svg10.dtd">
<svg version="1.0" xmlns="http://www.w3.org/2000/svg"
 width="920.000000pt" height="673.000000pt" viewBox="0 0 920.000000 673.000000"
 preserveAspectRatio="xMidYMid meet">
<metadata>
Created by potrace 1.16, written by Peter Selinger 2001-2019
</metadata>
<g transform="translate(0.000000,673.000000) scale(0.100000,-0.100000)"
fill="#000000" stroke="none">
<path d="M3090 6681 c-515 -107 -953 -248 -1482 -476 l-88 -38 -69 -106 c-594
-915 -976 -1849 -1156 -2832 -36 -198 -79 -518 -90 -674 -4 -49 -9 -103 -11
-120 -3 -16 -8 -201 -11 -410 -4 -298 -2 -435 12 -635 9 -140 18 -257 21 -261
6 -10 178 -132 319 -226 533 -355 1116 -639 1742 -848 78 -25 150 -45 160 -43
35 6 280 383 418 641 48 91 55 111 44 121 -8 7 -68 35 -134 62 -120 49 -424
196 -522 254 -32 18 -53 37 -53 48 0 15 76 83 140 125 24 15 29 14 105 -19
562 -246 1126 -392 1720 -446 157 -14 610 -17 785 -5 594 40 1201 191 1769
441 118 52 101 55 206 -31 33 -27 61 -56 63 -65 5 -29 -325 -200 -600 -313
-68 -27 -118 -53 -118 -61 0 -31 185 -351 322 -558 132 -198 130 -195 154
-196 51 0 552 184 829 304 172 76 533 261 720 370 146 86 489 310 611 399 l61
45 7 84 c22 289 27 407 27 698 0 310 -8 497 -31 730 -79 802 -279 1543 -624
2312 -138 308 -391 763 -608 1094 l-80 122 -166 70 c-344 146 -628 245 -965
337 -213 59 -542 132 -636 141 l-58 7 -85 -169 c-46 -93 -98 -200 -114 -237
-26 -62 -31 -67 -54 -62 -172 35 -614 68 -940 69 -395 1 -831 -28 -1026 -69
-18 -4 -35 23 -138 230 l-117 235 -37 -1 c-20 0 -120 -17 -222 -38z m181
-2776 c391 -82 670 -478 646 -915 -14 -242 -98 -446 -254 -611 -254 -269 -639
-316 -941 -115 -71 47 -170 142 -222 212 -46 64 -106 190 -136 289 -25 82 -28
105 -28 255 -1 180 11 250 65 383 125 309 408 515 711 516 48 1 119 -6 159
-14z m2974 -9 c232 -65 449 -265 536 -495 52 -137 62 -199 63 -361 0 -188 -20
-282 -94 -436 -159 -329 -476 -507 -809 -455 -302 47 -562 303 -653 641 -32
118 -32 366 0 481 91 332 319 567 616 635 78 17 259 12 341 -10z"/>
</g>
</svg>
