<?xml version="1.0" standalone="no"?>
<!DOCTYPE svg PUBLIC "-//W3C//DTD SVG 20010904//EN"
 "http://www.w3.org/TR/2001/REC-SVG-20010904/DTD/svg10.dtd">
<svg version="1.0" xmlns="http://www.w3.org/2000/svg"
 width="900.000000pt" height="722.000000pt" viewBox="0 0 900.000000 722.000000"
 preserveAspectRatio="xMidYMid meet">
<metadata>
Created by potrace 1.16, written by Peter Selinger 2001-2019
</metadata>
<g transform="translate(0.000000,722.000000) scale(0.100000,-0.100000)"
fill="#000000" stroke="none">
<path d="M4335 7194 c-27 -2 -102 -11 -165 -20 -1039 -147 -1975 -764 -2520
-1662 -78 -129 -214 -411 -268 -557 -119 -318 -191 -648 -223 -1014 -22 -261
2 -682 52 -906 84 -378 176 -638 335 -952 52 -101 94 -191 94 -201 0 -9 -139
-432 -309 -940 -170 -507 -307 -922 -304 -922 3 0 49 14 102 31 53 17 263 84
466 149 204 65 447 143 540 174 615 198 799 256 811 256 8 0 58 -21 112 -46
442 -208 794 -314 1192 -359 206 -23 645 -20 830 5 552 75 1014 242 1460 528
737 475 1289 1242 1500 2088 196 784 112 1641 -234 2365 -276 578 -721 1085
-1251 1426 -428 275 -891 450 -1395 529 -145 22 -202 26 -470 29 -168 1 -327
1 -355 -1z m595 -584 c331 -22 759 -150 1080 -322 249 -134 484 -310 690 -517
418 -421 677 -891 805 -1456 33 -149 42 -218 55 -440 18 -301 2 -515 -60 -797
-63 -284 -201 -635 -338 -858 -266 -433 -587 -758 -1002 -1012 -832 -509
-1864 -565 -2750 -150 -84 39 -326 175 -344 193 -16 15 -34 11 -166 -32 -418
-135 -787 -255 -864 -280 -49 -16 -91 -27 -94 -24 -14 13 48 212 237 764 56
162 101 300 101 307 0 7 -24 48 -54 91 -214 312 -358 664 -452 1098 -24 113
-26 141 -31 480 -5 391 -2 432 61 705 175 762 681 1454 1356 1853 265 158 475
245 770 321 346 89 562 106 1000 76z"/>
<path d="M3378 5396 c-183 -71 -378 -336 -442 -601 -23 -95 -29 -153 -27 -260
2 -206 52 -389 170 -624 220 -437 642 -975 996 -1270 266 -221 501 -356 890
-512 384 -153 426 -163 677 -157 170 4 188 7 258 33 322 119 490 288 534 535
40 228 35 258 -57 311 -291 170 -702 376 -768 385 -42 6 -49 3 -83 -27 -21
-18 -72 -73 -114 -123 -103 -123 -231 -255 -264 -272 -61 -31 -147 -3 -353
115 -361 207 -610 441 -844 789 -91 137 -151 250 -151 288 0 32 19 59 127 183
46 53 105 129 130 169 69 110 69 130 -7 337 -100 275 -241 623 -262 650 -37
48 -69 56 -227 61 -110 3 -155 1 -183 -10z"/>
</g>
</svg>
